<svg width="20" height="20" viewBox="0 0 20 20" fill="none" xmlns="http://www.w3.org/2000/svg">
<path d="M9.75068 15.5981C9.01079 16.338 8.11939 16.708 7.07647 16.708C6.03356 16.7081 5.1422 16.3382 4.4024 15.5984C3.6626 14.8586 3.29263 13.9672 3.29248 12.924C3.29233 11.8809 3.6622 10.9894 4.40209 10.2495L6.18119 8.47042C6.3064 8.34521 6.45373 8.28262 6.62317 8.28267C6.79261 8.2827 6.93997 8.34536 7.06525 8.47063C7.19051 8.5959 7.2531 8.74319 7.253 8.9125C7.25291 9.0818 7.19026 9.22906 7.06504 9.35428L5.28527 11.1341C4.79089 11.6284 4.5437 12.225 4.5437 12.9238C4.5437 13.6226 4.79112 14.2194 5.28594 14.7143C5.78077 15.2091 6.37758 15.4565 7.07638 15.4565C7.77518 15.4565 8.37177 15.2093 8.86614 14.7149L10.6459 12.9352C10.7711 12.8099 10.9185 12.7474 11.0879 12.7474C11.2573 12.7474 11.4047 12.8101 11.53 12.9353C11.6552 13.0606 11.7178 13.2079 11.7177 13.3772C11.7176 13.5465 11.655 13.6938 11.5298 13.819L9.75068 15.5981ZM8.67415 12.2099C8.54893 12.3351 8.40161 12.3977 8.23218 12.3977C8.06273 12.3976 7.91537 12.335 7.7901 12.2097C7.66483 12.0844 7.60224 11.9371 7.60234 11.7678C7.60243 11.5985 7.66508 11.4513 7.7903 11.326L11.3258 7.79051C11.451 7.6653 11.5984 7.6027 11.7678 7.60273C11.9373 7.60278 12.0846 7.66544 12.2099 7.7907C12.3352 7.91598 12.3977 8.06327 12.3977 8.23257C12.3976 8.40188 12.3349 8.54915 12.2097 8.67437L8.67415 12.2099ZM13.8188 11.53C13.6936 11.6552 13.5462 11.7178 13.3768 11.7177C13.2074 11.7177 13.06 11.6551 12.9347 11.5298C12.8095 11.4045 12.7469 11.2572 12.747 11.0879C12.7471 10.9186 12.8097 10.7713 12.9349 10.6461L14.7147 8.86636C15.2091 8.37198 15.4563 7.7754 15.4563 7.0766C15.4563 6.3778 15.2089 5.78099 14.714 5.28616C14.2192 4.79133 13.6224 4.54392 12.9236 4.54392C12.2248 4.54392 11.6282 4.79111 11.1338 5.28548L9.35406 7.06526C9.22885 7.19047 9.08152 7.25306 8.91209 7.25302C8.74264 7.25298 8.59528 7.19033 8.47002 7.06506C8.34474 6.93979 8.28215 6.79249 8.28225 6.62318C8.28234 6.45388 8.34499 6.30662 8.47021 6.1814L10.2493 4.40231C10.9892 3.66242 11.8806 3.29244 12.9235 3.29237C13.9664 3.2923 14.8578 3.66217 15.5976 4.40197C16.3374 5.14177 16.7074 6.03323 16.7075 7.07636C16.7076 8.11949 16.3378 9.011 15.5979 9.75089L13.8188 11.53Z" fill="#4CBFA4"/>
</svg>
